# Blender v2.93.5 OBJ File: 'cube.blend'
# www.blender.org
mtllib cube.mtl
o up
v -0.500000 0.500000 0.500000
v -0.500000 0.500000 -0.500000
v 0.500000 0.500000 0.500000
v 0.500000 0.500000 -0.500000
vt 0.625000 0.500000
vt 0.875000 0.500000
vt 0.875000 0.750000
vt 0.625000 0.750000
vn 0.0000 1.0000 0.0000
usemtl Material
s off
f 4/1/1 2/2/1 1/3/1 3/4/1
o down
v -0.500000 -0.500000 0.500000
v -0.500000 -0.500000 -0.500000
v 0.500000 -0.500000 0.500000
v 0.500000 -0.500000 -0.500000
vt 0.125000 0.500000
vt 0.375000 0.500000
vt 0.375000 0.750000
vt 0.125000 0.750000
vn 0.0000 -1.0000 0.0000
usemtl None
s off
f 6/5/2 8/6/2 7/7/2 5/8/2
o forwards
v -0.500000 -0.500000 -0.500000
v -0.500000 0.500000 -0.500000
v 0.500000 -0.500000 -0.500000
v 0.500000 0.500000 -0.500000
vt 0.375000 0.250000
vt 0.625000 0.250000
vt 0.625000 0.500000
vt 0.375000 0.500000
vn 0.0000 0.0000 -1.0000
usemtl None
s off
f 9/9/3 10/10/3 12/11/3 11/12/3
o backwards
v -0.500000 -0.500000 0.500000
v -0.500000 0.500000 0.500000
v 0.500000 -0.500000 0.500000
v 0.500000 0.500000 0.500000
vt 0.375000 0.750000
vt 0.625000 0.750000
vt 0.625000 1.000000
vt 0.375000 1.000000
vn 0.0000 0.0000 1.0000
usemtl None
s off
f 15/13/4 16/14/4 14/15/4 13/16/4
o right
v 0.500000 -0.500000 0.500000
v 0.500000 0.500000 0.500000
v 0.500000 -0.500000 -0.500000
v 0.500000 0.500000 -0.500000
vt 0.375000 0.500000
vt 0.625000 0.500000
vt 0.625000 0.750000
vt 0.375000 0.750000
vn 1.0000 0.0000 0.0000
usemtl None
s off
f 19/17/5 20/18/5 18/19/5 17/20/5
o left
v -0.500000 -0.500000 0.500000
v -0.500000 0.500000 0.500000
v -0.500000 -0.500000 -0.500000
v -0.500000 0.500000 -0.500000
vt 0.375000 0.000000
vt 0.625000 0.000000
vt 0.625000 0.250000
vt 0.375000 0.250000
vn -1.0000 0.0000 0.0000
usemtl None
s off
f 21/21/6 22/22/6 24/23/6 23/24/6
